<?xml version="1.0" encoding="UTF-8"?>
<svg id="Layer_2" data-name="Layer 2" xmlns="http://www.w3.org/2000/svg" viewBox="0 0 654.2 593.65">
  <defs>
    <style>
      .cls-1 {
        fill: #efbc6e;
      }
    </style>
  </defs>
  <g id="Layer_1-2" data-name="Layer 1">
    <path class="cls-1" d="M652.14,22.72l-320.92,555.79c-11.66,20.19-40.82,20.19-52.49,0l-5.35-9.26c-18.51-32.04-18.51-71.53,0-103.58l87.57-151.69c2.8-4.85,8.06-7.71,13.66-7.54,17.54.55,34.82-8.34,44.21-24.62,13.63-23.59,5.53-53.78-18.06-67.41-23.59-13.63-53.78-5.53-67.37,18.06-9.4,16.25-8.49,35.66.77,50.61,2.95,4.76,3.1,10.73.3,15.58l-26.67,46.18c-36.44,63.12-127.54,63.12-163.98,0L10.27,113.61C-18.89,63.13,17.54,0,75.86,0h167.07c29.16,0,47.38,31.56,32.79,56.81l-25.87,44.79c-2.8,4.84-8.03,7.7-13.62,7.54-17.57-.52-34.84,8.37-44.24,24.66-13.63,23.59-5.53,53.78,18.06,67.41,23.59,13.6,53.74,5.53,67.37-18.06,9.4-16.29,8.47-35.67-.78-50.61-2.94-4.76-3.09-10.73-.29-15.57l12.84-22.25C323.04,36.11,385.56,0,453.22,0h185.82c11.66,0,18.94,12.61,13.1,22.72Z"/>
  </g>
</svg>